<svg width="236" height="66" viewBox="0 0 236 66" fill="none" xmlns="http://www.w3.org/2000/svg">
<g clip-path="url(#clip0_2_120)">
<mask id="mask0_2_120" style="mask-type:luminance" maskUnits="userSpaceOnUse" x="0" y="0" width="236" height="66">
<path d="M236 0H0V66H236V0Z" fill="white"/>
</mask>
<g mask="url(#mask0_2_120)">
<path d="M48.3626 0.492615L34.6428 38.6667H42.6769L45.1925 31.4031H60.3838L62.8994 38.6667H70.9847L57.2648 0.492615H48.3626ZM47.2626 25.285L52.7858 9.33807L58.3044 25.285H47.2626Z" fill="black"/>
<path d="M98.9548 26.7044L81.6332 0.492615H73.9889V38.6667H81.6332V12.5061L98.9548 38.6667H106.608V0.492615H98.9548V26.7044Z" fill="black"/>
<path d="M124.556 8.49306C126.288 7.45407 128.26 6.93456 130.484 6.93456C132.563 6.93456 134.392 7.38912 135.974 8.29824C137.557 9.21201 138.787 10.5757 139.664 12.394H148.46C147.188 8.53482 144.941 5.51519 141.744 3.33051C138.536 1.14581 134.8 0.0557861 130.544 0.0557861C126.9 0.0557861 123.61 0.886062 120.681 2.54198C117.748 4.19789 115.432 6.50782 113.738 9.47177C112.043 12.4403 111.199 15.8032 111.199 19.551C111.199 23.2989 112.043 26.6479 113.738 29.5979C115.432 32.5479 117.743 34.8485 120.681 36.5045C123.614 38.1604 126.905 38.9906 130.544 38.9906C134.837 38.9906 138.583 37.9099 141.767 35.739C144.96 33.573 147.193 30.5441 148.464 26.6479H139.669C138.792 28.466 137.562 29.839 135.979 30.7713C134.396 31.6991 132.563 32.1629 130.488 32.1629C128.27 32.1629 126.292 31.6434 124.561 30.6091C122.825 29.5699 121.484 28.095 120.518 26.184C119.553 24.2684 119.066 22.0604 119.066 19.551C119.066 17.0417 119.548 14.7828 120.518 12.8856C121.484 10.9978 122.825 9.52742 124.561 8.49306" fill="black"/>
<path d="M180.183 2.51403C177.212 0.834914 173.927 0 170.32 0C166.714 0 163.47 0.834914 160.485 2.51403C157.505 4.18848 155.129 6.50769 153.384 9.47628C151.634 12.4449 150.757 15.7799 150.757 19.4999C150.757 23.2198 151.63 26.606 153.384 29.5699C155.129 32.5385 157.501 34.8577 160.485 36.5367C163.474 38.2112 166.756 39.0461 170.32 39.0461C173.886 39.0461 177.171 38.2065 180.159 36.5367C183.145 34.8577 185.503 32.5385 187.234 29.5699C188.965 26.606 189.828 23.2478 189.828 19.4999C189.828 15.7521 188.965 12.4449 187.234 9.47628C185.503 6.50769 183.153 4.18848 180.183 2.51403ZM180.485 26.2117C179.501 28.1412 178.132 29.6255 176.387 30.6646C174.637 31.7036 172.618 32.2231 170.32 32.2231C168.023 32.2231 165.995 31.7036 164.231 30.6646C162.462 29.6255 161.089 28.1412 160.105 26.2117C159.121 24.2821 158.629 22.0464 158.629 19.4952C158.629 16.9441 159.125 14.7177 160.105 12.802C161.089 10.891 162.462 9.42989 164.231 8.4048C165.995 7.38436 168.027 6.87413 170.32 6.87413C172.612 6.87413 174.637 7.38436 176.387 8.4048C178.132 9.42525 179.501 10.891 180.485 12.802C181.46 14.7177 181.956 16.9395 181.956 19.4952C181.956 22.0509 181.46 24.2774 180.485 26.2117Z" fill="black"/>
<path d="M227.368 0.547424L215.235 28.8882L203.106 0.547424H194.417V38.6612H202.068V13.8689L212.338 38.6612H218.131L228.352 13.8689V38.6612H236V0.547424H227.368Z" fill="black"/>
<path d="M31.6409 15.4783H7.65424V23.1271H31.6409V15.4783Z" fill="#FC5E20"/>
<path d="M7.65363 0.547424H0V15.4785H7.65363V0.547424Z" fill="black"/>
<path d="M31.6362 0.547424H23.9872V15.4785H31.6362V0.547424Z" fill="black"/>
<path d="M7.65363 23.1226H0V38.6612H7.65363V23.1226Z" fill="black"/>
<path d="M31.6362 23.1226H23.9872V38.6612H31.6362V23.1226Z" fill="black"/>
<path d="M0 50.1644H4.39539V48.0678H6.29371V50.1644H10.6705V51.7044H0V50.1644ZM5.33758 52.5624C7.90426 52.5532 9.67262 53.889 9.67262 55.9392C9.67262 57.9893 7.90426 59.2835 5.33758 59.2929C2.73841 59.2835 0.970048 57.9662 0.979329 55.9392C0.970048 53.8937 2.73841 52.5532 5.33758 52.5624ZM2.70129 60.4107H4.59961V64.0471H14.8106V65.5825H2.69664V60.4107H2.70129ZM5.33758 57.8132C6.85532 57.8224 7.87642 57.1034 7.89498 55.9347C7.87642 54.7564 6.85532 54.0281 5.33758 54.0189C3.81986 54.0281 2.79875 54.7564 2.81732 55.9347C2.79875 57.1034 3.81521 57.8224 5.33758 57.8132ZM14.0494 53.8379H16.6486V55.4152H14.0494V61.4682H12.1511V48.0864H14.0494V53.8379Z" fill="black"/>
<path d="M18.8402 58.7316L18.079 57.1963C20.8777 56.3845 22.7342 55.1972 23.825 53.7221L18.3203 54.1441L18.0187 52.6042L24.5908 52.3213C24.8089 51.7832 24.9388 51.2035 25.0086 50.6051H18.9144V49.0651H27.0275C27.0182 53.699 24.498 56.9922 18.8355 58.7316H18.8402ZM20.8777 59.2697H32.5925V65.7403H20.8777V59.2697ZM30.7081 64.2003V60.7865H22.7342V64.2003H30.7081ZM26.9719 52.7156H30.6896V48.0818H32.5878V58.3466H30.6896V54.2695H26.9719V52.7109V52.7156Z" fill="black"/>
<path d="M43.6145 55.0393H46.1533V48.527H47.9497V65.0863H46.1533V56.5794H43.0343C42.0366 58.764 40.3145 60.7122 37.4787 62.2892L36.3972 60.9719C38.9963 59.5247 40.5651 57.7761 41.4564 55.7909L36.6572 56.2826L36.3972 54.6451L41.9854 54.3065C42.2082 53.4762 42.3429 52.6088 42.4032 51.7089H37.279V50.1505H44.2552C44.2552 51.8482 44.0741 53.4947 43.6145 55.044V55.0393ZM49.9316 48.0678H51.7277V65.9628H49.9316V48.0678Z" fill="black"/>
<path d="M63.3741 54.775H67.0732V48.0631H68.953V65.9953H67.0732V56.3103H63.3973C63.1884 59.8076 61.3782 61.9738 58.8813 61.9599C56.2124 61.9691 54.3234 59.5339 54.342 55.6701C54.3234 51.8435 56.2124 49.4083 58.8813 49.3991C61.3179 49.4083 63.0862 51.4678 63.3741 54.7703V54.775ZM58.8813 60.2669C60.5011 60.2669 61.6056 58.5182 61.6196 55.6748C61.6103 52.8686 60.5011 51.1106 58.8813 51.1014C57.2613 51.1106 56.1521 52.8686 56.1428 55.6748C56.1521 58.5182 57.2613 60.2669 58.8813 60.2669Z" fill="black"/>
<path d="M72.601 49.1858H80.8348V54.2602H74.4994V56.496C77.6369 56.4774 79.9251 56.3753 82.6543 55.9579L82.8956 57.4931C79.967 57.9756 77.5301 58.0545 74.1419 58.0545H72.6429V52.7991H78.9597V50.7443H72.6057V49.1858H72.601ZM80.5749 59.3903C84.3623 59.3811 86.669 60.5777 86.669 62.6651C86.669 64.7522 84.3623 65.9305 80.5749 65.9211C76.7782 65.9305 74.4807 64.7338 74.4807 62.6651C74.4807 60.5963 76.7782 59.3811 80.5749 59.3903ZM80.5749 64.4229C83.2251 64.4323 84.7707 63.7968 84.7707 62.6651C84.7707 61.5332 83.2205 60.8793 80.5749 60.8885C77.9153 60.8793 76.3651 61.5287 76.3605 62.6651C76.3698 63.7921 77.92 64.4323 80.5749 64.4229ZM86.5484 59.0518H84.6501V48.0865H86.5484V59.0518Z" fill="black"/>
<path d="M89.3832 62.0076H105.707V63.566H89.3832V62.0076ZM103.79 51.9839C103.79 54.6 103.79 57.0583 103.01 60.7737L101.13 60.5928C101.511 58.9462 101.711 57.5175 101.808 56.1864L91.0541 56.7568L90.8174 55.1983L101.896 54.7762C101.938 53.8161 101.938 52.9024 101.947 51.9792V51.3623H91.3186V49.8038H103.785V51.9792L103.79 51.9839Z" fill="black"/>
</g>
</g>
<defs>
<clipPath id="clip0_2_120">
<rect width="236" height="66" fill="white"/>
</clipPath>
</defs>
</svg>
